<?xml version="1.0" encoding="UTF-8"?>
<svg width="88px" height="106px" viewBox="0 0 88 106" version="1.1" xmlns="http://www.w3.org/2000/svg" xmlns:xlink="http://www.w3.org/1999/xlink">
    <title>icon_num_3</title>
    <defs>
        <linearGradient x1="100%" y1="0%" x2="16.1526144%" y2="100%" id="linearGradient-1">
            <stop stop-color="#0098FF" offset="0%"></stop>
            <stop stop-color="#00E9FF" stop-opacity="0.237921456" offset="59.2236595%"></stop>
            <stop stop-color="#FFFFFF" stop-opacity="0" offset="100%"></stop>
        </linearGradient>
        <path d="M36.3203125,88.3632812 C40.2154948,88.3229167 43.4042969,87.0817057 45.8867188,84.6396484 C48.4095052,82.258138 49.6910807,78.9986979 49.7314453,74.8613281 C49.7314453,73.0045573 49.3378906,71.2285156 48.5507812,69.5332031 C47.7233073,67.8378906 46.3811849,66.3847656 44.5244141,65.1738281 C46.3408203,63.9427083 47.6022135,62.5400391 48.3085938,60.9658203 C48.9140625,59.3916016 49.2167969,57.7568359 49.2167969,56.0615234 C49.1764323,52.711263 48.0260417,49.805013 45.765625,47.3427734 C43.4042969,44.819987 40.2154948,43.5384115 36.1992188,43.4980469 C33.030599,43.5384115 30.3059896,44.6686198 28.0253906,46.8886719 C25.7044271,49.1289062 24.382487,51.8837891 24.0595703,55.1533203 L30.3867188,55.1533203 C30.7903646,53.3369141 31.577474,51.9947917 32.7480469,51.1269531 C33.8580729,50.2591146 35.0891927,49.8251953 36.4414062,49.8251953 C38.3183594,49.8655599 39.8522135,50.4609375 41.0429688,51.6113281 C42.233724,52.8020833 42.8492839,54.3258464 42.8896484,56.1826172 C42.8896484,58.0192057 42.2942708,59.5126953 41.1035156,60.6630859 C39.9127604,61.8538411 38.2376302,62.4492188 36.078125,62.4492188 L33.8984375,62.4492188 L33.8984375,68.0498047 L36.5625,68.0498047 C38.5201823,68.0498047 40.1347656,68.6451823 41.40625,69.8359375 C42.6979167,71.0670573 43.3639323,72.8027344 43.4042969,75.0429688 C43.3639323,77.2428385 42.6979167,78.938151 41.40625,80.1289062 C40.1347656,81.4003906 38.570638,82.0361328 36.7138672,82.0361328 C34.9781901,82.0361328 33.585612,81.561849 32.5361328,80.6132812 C31.5068359,79.7050781 30.7096354,78.5143229 30.1445312,77.0410156 L23.8173828,77.0410156 C24.5035807,80.7141927 26.0071615,83.5195312 28.328125,85.4570312 C30.6490885,87.3945312 33.313151,88.3632812 36.3203125,88.3632812 Z" id="path-2"></path>
        <filter x="-63.7%" y="-18.9%" width="227.3%" height="175.8%" filterUnits="objectBoundingBox" id="filter-3">
            <feOffset dx="0" dy="9" in="SourceAlpha" result="shadowOffsetOuter1"></feOffset>
            <feGaussianBlur stdDeviation="4" in="shadowOffsetOuter1" result="shadowBlurOuter1"></feGaussianBlur>
            <feColorMatrix values="0 0 0 0 1   0 0 0 0 1   0 0 0 0 1  0 0 0 1 0" type="matrix" in="shadowBlurOuter1"></feColorMatrix>
        </filter>
    </defs>
    <g id="页面-1" stroke="none" stroke-width="1" fill="none" fill-rule="evenodd">
        <g id="画板" transform="translate(-291.000000, -439.000000)">
            <g id="icon_num_3" transform="translate(291.000000, 439.000000)">
                <circle id="椭圆形" fill="url(#linearGradient-1)" cx="44" cy="44" r="44"></circle>
                <g id="3" fill-rule="nonzero">
                    <use fill="black" fill-opacity="1" filter="url(#filter-3)" xlink:href="#path-2"></use>
                    <use fill="#000000" xlink:href="#path-2"></use>
                </g>
            </g>
        </g>
    </g>
</svg>