<?xml version="1.0" encoding="UTF-8"?>
<svg width="15px" height="24px" viewBox="0 0 15 24" version="1.1" xmlns="http://www.w3.org/2000/svg" xmlns:xlink="http://www.w3.org/1999/xlink">
    <title>icon_right_sketch</title>
    <g id="页面-1" stroke="none" stroke-width="1" fill="none" fill-rule="evenodd">
        <g id="普通电脑" transform="translate(-1024.000000, -455.000000)" fill="#FF8600" fill-rule="nonzero">
            <g id="btn_more" transform="translate(850.000000, 423.000000)">
                <g id="编组" transform="translate(40.000000, 22.000000)">
                    <g id="icon_right_sketch" transform="translate(134.000000, 10.000000)">
                        <path d="M1.484,0.6 C0.913546652,1.22239571 0.913546652,2.17760429 1.484,2.8 L10.284,11.6 L1.484,20.4 C0.865672788,20.7267335 0.525100315,21.4118643 0.637927015,22.1020479 C0.750753716,22.7922316 1.29176843,23.3332463 1.98195207,23.446073 C2.6721357,23.5588997 3.35726651,23.2183272 3.684,22.6 L13.606,12.678 C13.9288677,12.4031541 14.1401254,12.0197605 14.2,11.6 C14.1962048,11.1696859 14.0221899,10.7583779 13.716,10.456 L3.794,0.6 C3.48838475,0.292340857 3.07265289,0.119326893 2.639,0.119326893 C2.20534711,0.119326893 1.78961525,0.292340857 1.484,0.6 Z" id="路径"></path>
                    </g>
                </g>
            </g>
        </g>
    </g>
</svg>