<?xml version="1.0" encoding="UTF-8"?>
<svg width="165px" height="70px" viewBox="0 0 165 70" version="1.1" xmlns="http://www.w3.org/2000/svg" xmlns:xlink="http://www.w3.org/1999/xlink">
    <title>icon_qa</title>
    <g id="页面-1" stroke="none" stroke-width="1" fill="none" fill-rule="evenodd">
        <g id="关于" transform="translate(-130.000000, -200.000000)" fill-rule="nonzero">
            <g id="编组-6" transform="translate(127.000000, 200.000000)">
                <g id="icon_qa" transform="translate(3.800000, 0.116000)">
                    <path d="M46.588,68.172 L49.02,59.508 C46.9933333,59.356 45.106,59.1786667 43.358,58.976 C41.61,58.7733333 40.0773333,58.4693333 38.76,58.064 C37.4426667,57.6586667 36.3533333,57.1393333 35.492,56.506 C34.6306667,55.8726667 34.0733333,55.0493333 33.82,54.036 C36.556,53.3773333 39.064,52.3133333 41.344,50.844 C43.624,49.3746667 45.5873333,47.5253333 47.234,45.296 C48.8806667,43.0666667 50.16,40.47 51.072,37.506 C51.984,34.542 52.44,31.2106667 52.44,27.512 C52.44,23.0026667 51.756,19.038 50.388,15.618 C49.02,12.198 47.1453333,9.32266667 44.764,6.992 C42.3826667,4.66133333 39.596,2.91333333 36.404,1.748 C33.212,0.582666667 29.8173333,2.4158453e-13 26.22,2.4158453e-13 C22.724,2.4158453e-13 19.3926667,0.582666667 16.226,1.748 C13.0593333,2.91333333 10.2726667,4.66133333 7.866,6.992 C5.45933333,9.32266667 3.54666667,12.198 2.128,15.618 C0.709333333,19.038 -3.55271368e-15,23.0026667 -3.55271368e-15,27.512 C-3.55271368e-15,31.5653333 0.557333333,35.188 1.672,38.38 C2.78666667,41.572 4.332,44.308 6.308,46.588 C8.284,48.868 10.6146667,50.6793333 13.3,52.022 C15.9853333,53.3646667 18.8986667,54.2386667 22.04,54.644 C22.648,56.772 23.522,58.6466667 24.662,60.268 C25.802,61.8893333 27.3473333,63.2573333 29.298,64.372 C31.2486667,65.4866667 33.63,66.3606667 36.442,66.994 C39.254,67.6273333 42.636,68.02 46.588,68.172 L46.588,68.172 Z M26.22,44.536 C23.9906667,44.536 22.0146667,44.1306667 20.292,43.32 C18.5693333,42.5093333 17.1126667,41.3566667 15.922,39.862 C14.7313333,38.3673333 13.8193333,36.5813333 13.186,34.504 C12.5526667,32.4266667 12.236,30.096 12.236,27.512 C12.236,24.9786667 12.5526667,22.6606667 13.186,20.558 C13.8193333,18.4553333 14.7313333,16.6566667 15.922,15.162 C17.1126667,13.6673333 18.5693333,12.502 20.292,11.666 C22.0146667,10.83 23.9906667,10.412 26.22,10.412 C28.3986667,10.412 30.362,10.8173333 32.11,11.628 C33.858,12.4386667 35.3273333,13.5913333 36.518,15.086 C37.7086667,16.5806667 38.6206667,18.3793333 39.254,20.482 C39.8873333,22.5846667 40.204,24.928 40.204,27.512 C40.204,30.096 39.8873333,32.4266667 39.254,34.504 C38.6206667,36.5813333 37.7086667,38.3673333 36.518,39.862 C35.3273333,41.3566667 33.858,42.5093333 32.11,43.32 C30.362,44.1306667 28.3986667,44.536 26.22,44.536 Z" id="Q" fill="#0098FF"></path>
                    <path d="M80.512,54.568 C84.0586667,54.568 87.2,53.922 89.936,52.63 C92.672,51.338 95.0786667,49.6533333 97.156,47.576 C98.1186667,48.64 99.0433333,49.704 99.93,50.768 C100.816667,51.832 101.564,52.8706667 102.172,53.884 L102.172,53.884 L109.62,53.884 C108.657333,52.1106667 107.428667,50.2866667 105.934,48.412 C104.439333,46.5373333 102.805333,44.6373333 101.032,42.712 C102.552,40.28 103.73,37.8353333 104.566,35.378 C105.402,32.9206667 105.921333,30.6533333 106.124,28.576 L106.124,28.576 L100.272,27.816 C99.7653333,31.7173333 98.6506667,35.264 96.928,38.456 L96.928,38.456 L84.616,25.916 C86.0346667,25.156 87.3773333,24.2946667 88.644,23.332 C89.9106667,22.3693333 91.038,21.3053333 92.026,20.14 C93.014,18.9746667 93.7993333,17.6826667 94.382,16.264 C94.9646667,14.8453333 95.256,13.2493333 95.256,11.476 C95.256,9.90533333 94.9773333,8.41066667 94.42,6.992 C93.8626667,5.57333333 93.0393333,4.35733333 91.95,3.344 C90.8606667,2.33066667 89.518,1.52 87.922,0.912 C86.326,0.304 84.5146667,1.0658141e-13 82.488,1.0658141e-13 C80.512,1.0658141e-13 78.7006667,0.304 77.054,0.912 C75.4073333,1.52 73.9886667,2.38133333 72.798,3.496 C71.6073333,4.61066667 70.67,5.97866667 69.986,7.6 C69.302,9.22133333 68.96,11.0453333 68.96,13.072 C68.96,17.0746667 70.8346667,20.9506667 74.584,24.7 C73.1146667,25.4093333 71.696,26.2326667 70.328,27.17 C68.96,28.1073333 67.7566667,29.1966667 66.718,30.438 C65.6793333,31.6793333 64.856,33.0726667 64.248,34.618 C63.64,36.1633333 63.336,37.924 63.336,39.9 C63.336,41.4706667 63.6146667,43.1173333 64.172,44.84 C64.7293333,46.5626667 65.6793333,48.146 67.022,49.59 C68.3646667,51.034 70.1253333,52.2246667 72.304,53.162 C74.4826667,54.0993333 77.2186667,54.568 80.512,54.568 Z M80.74,22.192 C77.2946667,19.0506667 75.572,15.8333333 75.572,12.54 C75.572,10.564 76.1673333,8.90466667 77.358,7.562 C78.5486667,6.21933333 80.2586667,5.548 82.488,5.548 C84.464,5.548 86.022,6.14333333 87.162,7.334 C88.302,8.52466667 88.872,9.98133333 88.872,11.704 C88.872,13.0213333 88.6566667,14.1993333 88.226,15.238 C87.7953333,16.2766667 87.2126667,17.2266667 86.478,18.088 C85.7433333,18.9493333 84.882,19.7093333 83.894,20.368 C82.906,21.0266667 81.8546667,21.6346667 80.74,22.192 Z M80.664,48.716 C78.7386667,48.716 77.13,48.4246667 75.838,47.842 C74.546,47.2593333 73.4946667,46.5246667 72.684,45.638 C71.8733333,44.7513333 71.2906667,43.776 70.936,42.712 C70.5813333,41.648 70.404,40.66 70.404,39.748 C70.404,38.1266667 70.6446667,36.708 71.126,35.492 C71.6073333,34.276 72.228,33.2246667 72.988,32.338 C73.748,31.4513333 74.5966667,30.704 75.534,30.096 C76.4713333,29.488 77.396,28.956 78.308,28.5 L78.308,28.5 L93.128,43.472 C91.5066667,45.144 89.6446667,46.436 87.542,47.348 C85.4393333,48.26 83.1466667,48.716 80.664,48.716 Z M122.34,53.884 L127.128,40.432 L150.992,40.432 C151.802667,42.712 152.588,44.954 153.348,47.158 C154.108,49.362 154.918667,51.604 155.78,53.884 L155.78,53.884 L163.836,53.884 C161.809333,48.3106667 159.909333,43.1553333 158.136,38.418 C156.362667,33.6806667 154.627333,29.184 152.93,24.928 C151.232667,20.672 149.548,16.606 147.876,12.73 C146.204,8.854 144.456,5.016 142.632,1.216 L142.632,1.216 L135.868,1.216 C134.044,5.016 132.296,8.854 130.624,12.73 C128.952,16.606 127.267333,20.672 125.57,24.928 C123.872667,29.184 122.137333,33.6806667 120.364,38.418 C118.590667,43.1553333 116.690667,48.3106667 114.664,53.884 L114.664,53.884 L122.34,53.884 Z M148.864,34.352 L129.256,34.352 C130.826667,29.944 132.41,25.6753333 134.006,21.546 C135.602,17.4166667 137.286667,13.452 139.06,9.652 C140.782667,13.452 142.442,17.4166667 144.038,21.546 C145.634,25.6753333 147.242667,29.944 148.864,34.352 L148.864,34.352 Z" id="&amp;A" fill="#000000"></path>
                </g>
            </g>
        </g>
    </g>
</svg>