<?xml version="1.0" encoding="UTF-8"?>
<svg width="25px" height="20px" viewBox="0 0 25 20" version="1.1" xmlns="http://www.w3.org/2000/svg" xmlns:xlink="http://www.w3.org/1999/xlink">
    <title>icon_news</title>
    <g id="页面-1" stroke="none" stroke-width="1" fill="none" fill-rule="evenodd">
        <g id="关于" transform="translate(-127.000000, -983.000000)" fill-rule="nonzero">
            <g id="icon_news" transform="translate(127.000000, 983.000000)">
                <path d="M24.9011719,0.00234375 L24.9011719,19.8023438 L0.001171875,19.8023438 L0.001171875,0.00234375 L24.9011719,0.00234375 Z M21.6011719,3.30234375 L3.30117187,3.30234375 L3.30117187,16.5023438 L21.6011719,16.5023438 L21.6011719,3.30234375 L21.6011719,3.30234375 Z" id="形状" fill="#0BE142"></path>
                <polygon id="路径" fill="#0BE142" points="10.5472219 9.25434375 9.00117188 15.3023437 5.70117188 15.3023437 8.46237188 4.50234375 11.7623719 4.50234375 14.4160219 10.5503437 15.9623719 4.50234375 19.2623719 4.50234375 16.5011719 15.3023437 13.2011719 15.3023437"></polygon>
                <path d="M14.4160219,10.5503437 L16.5011719,15.3023437 L13.2011719,15.3023437 L14.4160219,10.5503437 L14.4160219,10.5503437 Z M11.7623719,4.50234375 L11.7623719,4.50249375 L10.5473719,9.25434375 L8.46237187,4.50234375 L11.7623719,4.50234375 L11.7623719,4.50234375 Z" id="形状" fill="#34CC33"></path>
            </g>
        </g>
    </g>
</svg>