<svg width="120" height="120" xmlns="http://www.w3.org/2000/svg" xmlns:xlink="http://www.w3.org/1999/xlink"><defs><linearGradient x1="50%" y1="0%" x2="50%" y2="100%" id="a"><stop stop-color="#FF7017" offset="0%"/><stop stop-color="#FFCD4A" stop-opacity=".677" offset="100%"/></linearGradient><linearGradient x1="50%" y1="0%" x2="50%" y2="100%" id="b"><stop stop-color="#FF7017" offset="0%"/><stop stop-color="#FFCD4A" stop-opacity=".677" offset="100%"/></linearGradient><filter x="-18.6%" y="-18.4%" width="137.2%" height="151.5%" filterUnits="objectBoundingBox" id="c"><feOffset dy="2" in="SourceAlpha" result="shadowOffsetOuter1"/><feGaussianBlur stdDeviation="2" in="shadowOffsetOuter1" result="shadowBlurOuter1"/><feColorMatrix values="0 0 0 0 1 0 0 0 0 0.356862745 0 0 0 0 0.0509803922 0 0 0 0.532799354 0" in="shadowBlurOuter1"/></filter><filter x="-14.6%" y="-12.9%" width="129.2%" height="140.4%" filterUnits="objectBoundingBox" id="e"><feGaussianBlur stdDeviation="1" in="SourceAlpha" result="shadowBlurInner1"/><feOffset dy="-1" in="shadowBlurInner1" result="shadowOffsetInner1"/><feComposite in="shadowOffsetInner1" in2="SourceAlpha" operator="arithmetic" k2="-1" k3="1" result="shadowInnerInner1"/><feColorMatrix values="0 0 0 0 1 0 0 0 0 0.671675134 0 0 0 0 0.400332269 0 0 0 1 0" in="shadowInnerInner1"/></filter><path d="M11.481 7.241l-6.175 6.362 6.175 6.362-2.65 2.73-8.825-9.092 8.825-9.092 2.65 2.73zm14.698 0l2.65-2.73 8.827 9.092-8.825 9.093-2.652-2.73 6.175-6.363-6.175-6.362zM15.646 27.203l-3.48-1.437 10-25.758 3.48 1.438-10 25.757z" id="d"/></defs><g fill="none" fill-rule="evenodd"><rect fill="url(#a)" style="mix-blend-mode:multiply" x="7" y="33.727" width="75" height="77.273" rx="20"/><rect fill="url(#b)" style="mix-blend-mode:multiply" x="25" y="9" width="88" height="90.667" rx="20"/><g transform="translate(36 53.303)" fill-rule="nonzero"><use fill="#000" filter="url(#c)" xlink:href="#d"/><use fill="#FFF" xlink:href="#d"/><use fill="#000" filter="url(#e)" xlink:href="#d"/></g></g></svg>