<svg id="ems3gl4h7zdk1" xmlns="http://www.w3.org/2000/svg" xmlns:xlink="http://www.w3.org/1999/xlink" viewBox="0 0 382 403" shape-rendering="geometricPrecision" text-rendering="geometricPrecision"><style><![CDATA[#ems3gl4h7zdk2_to {animation: ems3gl4h7zdk2_to__to 2000ms linear infinite normal forwards}@keyframes ems3gl4h7zdk2_to__to { 0% {transform: translate(92.565002px,554.787308px);animation-timing-function: cubic-bezier(0.420000,0,0.580000,1)} 20% {transform: translate(92.565002px,245.025002px);animation-timing-function: cubic-bezier(0.420000,0,0.580000,1)} 70% {transform: translate(92.565002px,245.025002px);animation-timing-function: cubic-bezier(0.420000,0,0.580000,1)} 90% {transform: translate(92.565002px,554.787308px)} 100% {transform: translate(92.565002px,554.787308px)} }#ems3gl4h7zdk2 {animation: ems3gl4h7zdk2_c_o 2000ms linear infinite normal forwards}@keyframes ems3gl4h7zdk2_c_o { 0% {opacity: 0} 20% {opacity: 1} 70% {opacity: 1} 90% {opacity: 0} 100% {opacity: 0} }#ems3gl4h7zdk3 {animation: ems3gl4h7zdk3_c_o 2000ms linear infinite normal forwards}@keyframes ems3gl4h7zdk3_c_o { 0% {opacity: 0} 20% {opacity: 1} 70% {opacity: 1} 100% {opacity: 0} }#ems3gl4h7zdk4_to {animation: ems3gl4h7zdk4_to__to 2000ms linear infinite normal forwards}@keyframes ems3gl4h7zdk4_to__to { 0% {transform: translate(310.364998px,-35.058934px)} 5% {transform: translate(310.364998px,-35.058934px);animation-timing-function: cubic-bezier(0.420000,0,0.580000,1)} 25% {transform: translate(310.364998px,183.314991px);animation-timing-function: cubic-bezier(0.420000,0,0.580000,1)} 80% {transform: translate(310.364998px,183.314991px);animation-timing-function: cubic-bezier(0.420000,0,0.580000,1)} 100% {transform: translate(310.364998px,-35.058934px)} }#ems3gl4h7zdk4 {animation: ems3gl4h7zdk4_c_o 2000ms linear infinite normal forwards}@keyframes ems3gl4h7zdk4_c_o { 0% {opacity: 0} 5% {opacity: 0} 25% {opacity: 1} 80% {opacity: 1} 100% {opacity: 0} }]]></style><defs><linearGradient id="ems3gl4h7zdk2-fill" x1="0.671819" y1="0" x2="0.375126" y2="1.024885" spreadMethod="pad" gradientUnits="objectBoundingBox"><stop id="ems3gl4h7zdk2-fill-0" offset="0%" stop-color="rgb(0,152,255)"/><stop id="ems3gl4h7zdk2-fill-1" offset="100%" stop-color="rgba(0,228,255,0.237921)"/></linearGradient><linearGradient id="ems3gl4h7zdk3-fill" x1="0.679121" y1="-0.043963" x2="0.325591" y2="1.071774" spreadMethod="pad" gradientUnits="objectBoundingBox"><stop id="ems3gl4h7zdk3-fill-0" offset="0%" stop-color="rgba(0,233,255,0.237921)"/><stop id="ems3gl4h7zdk3-fill-1" offset="100%" stop-color="rgb(0,152,255)"/></linearGradient><linearGradient id="ems3gl4h7zdk4-fill" x1="0.573588" y1="-0.120609" x2="0.408477" y2="1" spreadMethod="pad" gradientUnits="objectBoundingBox"><stop id="ems3gl4h7zdk4-fill-0" offset="0%" stop-color="rgb(0,152,255)"/><stop id="ems3gl4h7zdk4-fill-1" offset="100%" stop-color="rgba(0,233,255,0.237921)"/></linearGradient></defs><g id="ems3gl4h7zdk2_to" transform="translate(92.565002,554.787308)"><path id="ems3gl4h7zdk2" d="M30.687263,111.290747L143.217263,93.679468C163.024101,90.579639,181.593623,104.123345,184.693452,123.930183C184.984045,125.786973,185.130000,127.663528,185.130000,129.542920L185.130000,342.895801C185.130000,360.776747,172.108644,375.994486,154.442737,378.759253L41.912737,396.370532C22.105899,399.470361,3.536377,385.926655,0.436548,366.119817C0.145955,364.263027,-0,362.386472,0,360.507080L0,147.154199C0,129.273253,13.021356,114.055514,30.687263,111.290747Z" transform="translate(-92.565002,-245.025002)" opacity="0" fill="url(#ems3gl4h7zdk2-fill)" fill-rule="evenodd" stroke="none" stroke-width="1"/></g><path id="ems3gl4h7zdk3" d="M125.354314,27.709620L270.554314,6.173840C290.385314,3.232545,308.845906,16.924356,311.787201,36.755355C312.048712,38.518532,312.180000,40.298576,312.180000,42.081041L312.180000,288.493179C312.180000,306.484205,299.002033,321.760861,281.205686,324.400380L136.005686,345.936160C116.174686,348.877455,97.714094,335.185644,94.772799,315.354645C94.511288,313.591468,94.380000,311.811424,94.380000,310.028959L94.380000,63.616821C94.380000,45.625795,107.557967,30.349139,125.354314,27.709620Z" transform="matrix(1 0 0 1 0 -1.10714300000001)" opacity="0" fill="url(#ems3gl4h7zdk3-fill)" fill-rule="evenodd" stroke="none" stroke-width="1"/><g id="ems3gl4h7zdk4_to" transform="translate(310.364998,-35.058934)"><path id="ems3gl4h7zdk4" d="M269.573032,66.875421L338.543032,54.707108C358.286050,51.223866,377.114655,64.405018,380.597897,84.148037C380.965263,86.230268,381.150000,88.340615,381.150000,90.455005L381.150000,264.006681C381.150000,281.621484,368.503860,296.694083,351.156968,299.754579L282.186968,311.922892C262.443950,315.406134,243.615345,302.224982,240.132103,282.481963C239.764737,280.399732,239.580000,278.289385,239.580000,276.174995L239.580000,102.623319C239.580000,85.008516,252.226140,69.935917,269.573032,66.875421Z" transform="translate(-310.364998,-183.314991)" opacity="0" fill="url(#ems3gl4h7zdk4-fill)" fill-rule="evenodd" stroke="none" stroke-width="1"/></g></svg>