<svg width="552" height="148" xmlns="http://www.w3.org/2000/svg"><g fill-rule="nonzero" fill="none"><path d="M2.4 139.656c2.112-2.72 3.328-6.208 3.648-10.432h9.536v9.76h1.088v-9.76H26.72v6.784c0 1.504-.736 2.272-2.144 2.272-1.088 0-2.304-.032-3.584-.032l.288 1.088h3.68c1.888 0 2.848-.992 2.848-2.944v-23.808H5.024v14.88c-.064 4.608-1.184 8.448-3.424 11.456l.8.736zm24.32-19.264H16.672v-6.72H26.72v6.72zm-11.136 0h-9.44v-6.72h9.44v6.72zm0 7.776H6.112l.032-.768v-5.984h9.44v6.752zm11.136 0H16.672v-6.752H26.72v6.752zm34.736 1.632v-16.16h11.072v16.16h1.088v-17.216h-13.28V129.8h1.12zm-13.504 5.824c3.616-.832 6.976-1.856 10.08-3.104v-1.088a59.826 59.826 0 01-4.608 1.664v-8.736h4.064v-1.088h-4.064v-8.64h4.512v-1.056H47.76v1.056h4.576v8.64h-4.16v1.088h4.16v9.056c-1.504.448-3.04.832-4.64 1.152l.256 1.056zm9.44 4.384c3.52-1.376 6.048-3.232 7.584-5.536 1.568-2.496 2.368-5.856 2.4-10.048v-8.064H66.32v8.064c-.032 3.776-.736 6.848-2.112 9.216-1.536 2.336-4 4.128-7.456 5.408l.64.96zm15.968-.448c.96 0 1.664-.256 2.112-.736.512-.64.864-2.24 1.024-4.736l-1.024-.32c-.128 2.304-.416 3.68-.8 4.192-.256.352-.768.544-1.536.544H70.32c-.832 0-1.248-.384-1.248-1.12v-7.712h-1.088v7.936c0 1.28.672 1.952 2.016 1.952h3.36zm45.392.192c.64 0 1.248-.448 1.792-1.312.64-1.28 1.12-3.232 1.472-5.856l-.928-.544c-.512 4.416-1.312 6.624-2.368 6.624-1.216 0-2.528-.896-3.936-2.688-1.568-1.984-2.752-4.608-3.552-7.872-.416-1.792-.736-3.968-.96-6.56l11.008-1.28-.16-1.056-10.944 1.28c-.224-2.752-.352-5.952-.352-9.536h-1.088c0 3.648.128 6.88.352 9.664l-7.488.864.16 1.056 7.424-.864c.192 2.624.512 4.768.96 6.496.864 3.552 2.176 6.432 3.936 8.608 1.6 1.984 3.168 2.976 4.672 2.976zm-19.648.384V118.6c1.28-2.208 2.336-4.608 3.232-7.168l-.992-.48c-1.6 5.12-4.32 9.76-8.16 13.92l.32 1.12a40.184 40.184 0 004.512-5.6v19.744h1.088zm18.72-23.008l.768-.736c-1.344-1.696-3.04-3.392-5.088-5.056l-.736.672c2.112 1.792 3.808 3.52 5.056 5.12zm28.528 23.008v-21.024c1.76-2.368 3.232-4.96 4.448-7.776l-1.024-.48c-2.08 5.184-5.536 9.856-10.368 14.048l.352 1.12a40.876 40.876 0 005.504-5.536v19.648h1.088zm17.472-.608c1.376 0 2.336-.384 2.88-1.152.512-.8.832-3.04 1.024-6.72l-1.024-.32c-.128 3.584-.416 5.664-.864 6.24-.448.576-1.184.864-2.208.864h-5.888c-1.152 0-1.728-.576-1.728-1.728V125.16c4.064-2.56 7.552-5.536 10.464-8.896l-.768-.832c-2.752 3.2-5.984 6.016-9.696 8.416v-12.736h-1.088v13.408c-1.728 1.088-3.616 2.08-5.6 2.976l.544 1.056a69.478 69.478 0 005.056-2.72v11.04c0 1.76.832 2.656 2.56 2.656h6.336zm23.6.48c2.752-2.24 4.928-4.672 6.528-7.328 1.184-2.24 1.952-4.768 2.304-7.552h12.416c0 4.48-.096 7.584-.288 9.312-.384 2.784-1.632 4.224-3.712 4.32-1.056 0-2.368-.032-3.936-.064l.352.992a85.75 85.75 0 003.712.096c2.528-.128 4.032-1.728 4.544-4.736.256-1.856.416-5.536.448-10.976h-13.408l.064-.608c.16-2.848.256-4.928.32-6.272h17.184v-1.088h-12.128c-.832-2.048-1.728-3.744-2.688-5.152l-1.056.384a22.177 22.177 0 012.592 4.768h-14.208v1.088h9.216c-.032 1.056-.096 2.88-.224 5.472-.192 3.104-.832 5.92-1.92 8.448-1.216 2.56-3.52 5.28-6.912 8.16l.8.736zm69.136-.128c1.344-.064 2.528-2.272 3.488-6.688l-.992-.512c-.8 3.84-1.664 5.856-2.56 6.048-1.312-.064-2.656-1.824-4.032-5.312-1.536-3.936-2.496-8.992-2.88-15.168h10.24v-1.088H249.52c-.128-1.92-.16-3.936-.16-6.08h-1.152c0 2.112.032 4.128.16 6.08h-16.192v1.088h16.256c.256 4.256.8 8 1.568 11.2 1.92 6.88 4.128 10.368 6.56 10.432zm-.128-23.776l.96-.48a36.68 36.68 0 00-3.296-4.256l-.928.448c1.152 1.248 2.24 2.688 3.264 4.288zm-23.936 21.632c5.312-.704 10.208-1.632 14.752-2.752v-1.088a95.938 95.938 0 01-7.36 1.6v-9.792h6.08v-1.088H232.72v1.088h6.08v9.984c-2.144.384-4.352.704-6.592.992l.288 1.056zm67.696 1.984c2.336 0 3.68-1.312 4.032-3.872.384-2.432.576-9.024.576-19.776h-11.488a43.109 43.109 0 001.12-5.024l-1.056-.128c-.768 4.768-2.24 8.832-4.416 12.16l.672.896c1.344-1.984 2.464-4.288 3.36-6.848h10.72c0 10.336-.192 16.64-.576 18.88-.32 1.792-1.376 2.72-3.136 2.72-.992 0-2.144-.032-3.488-.064l.256.992c1.6.032 2.752.064 3.424.064zm-16.064.192V122.6c1.184 1.344 2.624 3.168 4.288 5.472l.608-.896c-1.664-2.176-3.296-4.128-4.896-5.824v-2.592h4.384v-1.056h-4.384v-6.656h-1.056v6.656h-5.088v1.056h5.024c-1.088 4.544-2.976 8.576-5.696 12.16l.48 1.12c2.304-3.136 4.064-6.72 5.28-10.752v18.624h1.056zM300 134.024l.96-.448a66.148 66.148 0 00-2.944-8.16l-.96.32c.576 1.28 1.12 2.688 1.696 4.256-2.048.512-4.32.992-6.88 1.504.96-1.472 2.336-4.736 4.128-9.856l-.992-.352c-2.304 6.592-3.936 10.144-4.864 10.656l.224.832a139.31 139.31 0 008.672-1.888c.32.96.64 2.016.96 3.136zm42.544 2.848v-4.096h8.864v-.992h-8.864v-3.744h7.968v-.992h-7.968v-3.456h6.912v-4.48h2.528v-.992h-2.528v-4.544h-6.912v-2.624h-1.088v2.624h-6.08v.992h6.08v3.552h-7.648v.992h7.648v3.456h-6.08v1.024h6.08v3.456h-6.752v.992h6.752v3.744h-7.712v.992h7.712v4.096h1.088zm-17.76 2.752a17.875 17.875 0 004.192-4.448 9.995 9.995 0 001.568 1.504c2.4 1.664 6.4 2.496 12 2.496h9.632l.192-1.088c-3.52.064-6.976.096-10.304.096-4.64-.064-8.128-.736-10.464-2.016-.768-.416-1.472-1.024-2.112-1.856 1.696-3.008 2.624-6.656 2.752-10.976v-.736h-5.696c1.792-2.368 3.648-5.248 5.536-8.608v-.928h-7.296v1.088h5.984a74.064 74.064 0 01-5.664 8.608v.896h6.08c-.16 3.776-.96 7.04-2.368 9.728-1.056-1.632-1.984-3.84-2.816-6.592l-.896.32c.8 2.944 1.856 5.344 3.168 7.2a15.284 15.284 0 01-4.192 4.416l.704.896zm23.584-21.504h-5.824v-3.552h5.824v3.552zm0 4.448h-5.824v-3.456h5.824v3.456zM370.4 139.4c3.52-2.528 5.952-5.792 7.264-9.76 1.76 1.792 3.904 4.384 6.432 7.712l.64-.928c-2.304-2.944-4.576-5.568-6.784-7.808l.032-.064c.224-.96.416-1.952.608-3.008h6.112v-1.024h-5.952c.288-2.272.448-4.832.48-7.712h5.184v-1.088H374.24a42.035 42.035 0 001.568-4.672l-1.088-.224c-1.088 4.064-2.688 7.648-4.832 10.784l.928.576a33.272 33.272 0 002.976-5.376h4.32c-.032 2.816-.192 5.408-.512 7.712h-7.52v1.024h7.36a40.935 40.935 0 01-.672 3.232c-1.216 4.032-3.584 7.264-7.072 9.728l.704.896zm17.6-.768v-2.496h7.328v2.368h1.088v-23.712h-9.504v23.84H388zm7.328-3.552H388v-19.232h7.328v19.232zm28.208-17.76l.736-.736c-1.472-1.728-3.328-3.456-5.536-5.152l-.768.736c2.304 1.792 4.16 3.52 5.568 5.152zm18.624 9.824v-13.792h-13.664v13.792h13.664zm-1.088-1.088h-11.488v-11.648h11.488v11.648zm-20.448 12.416a40.305 40.305 0 005.44-4.8l-.288-1.152c-1.472 1.536-2.848 2.816-4.096 3.84v-15.168h-6.08v1.088h5.024v14.368c0 .256-.16.544-.448.832l.448.992zm22.976 1.568l.896-.672c-1.408-2.72-3.392-5.92-6.016-9.632l-.896.576c2.56 3.52 4.544 6.784 6.016 9.728zm-16.512.096c2.272-2.784 4.256-6.08 5.92-9.856l-.992-.48c-1.632 3.744-3.584 6.976-5.824 9.664l.896.672zm39.728-.032v-20.896c1.28-2.368 2.368-4.992 3.264-7.808l-.992-.48c-1.536 5.344-4.096 10.176-7.68 14.496l.32 1.088a40.59 40.59 0 004.032-5.44v19.04h1.056zm13.28-.064v-7.008h5.632v-1.056h-5.632V118.12h.96c1.568 6.016 4.48 11.424 8.768 16.256l.704-.864c-4.128-4.48-6.944-9.6-8.48-15.392h7.264v-1.088h-9.216v-6.048h-1.056v6.048h-9.152v1.088h7.264c-1.6 6.464-4.416 11.712-8.416 15.712l.576.928c4.192-4.288 7.136-9.824 8.8-16.64h.928v13.856h-5.6v1.056h5.6v7.008h1.056zm40.624-.096c1.44 0 2.176-.704 2.176-2.112v-9.44c3.104-.224 5.856-.48 8.256-.736.864 1.184 1.632 2.336 2.272 3.456l.896-.64c-1.376-2.24-3.36-4.864-5.984-7.872l-.832.512a69.763 69.763 0 012.944 3.616c-4.416.512-9.888.896-16.416 1.216 4.544-2.048 9.824-5.792 15.808-11.232l-1.024-.512a160.918 160.918 0 01-4.832 4.128c-3.2.224-6.4.416-9.632.608 2.432-1.344 4.96-3.52 7.584-6.496 4.352-.384 8.16-.992 11.392-1.856l-.576-.96c-5.728 1.472-13.184 2.24-22.4 2.272l.32.992c3.52 0 6.784-.128 9.856-.352-2.752 3.008-5.248 5.056-7.488 6.144-.256.096-.544.16-.8.192l.256 1.024c3.68-.192 7.104-.384 10.304-.64-3.968 3.04-7.488 5.216-10.624 6.528-.32.096-.64.16-1.024.224l.32.992c3.776-.16 7.232-.352 10.368-.544v9.088c0 .928-.512 1.408-1.504 1.408-1.088 0-2.208-.032-3.36-.064l.224 1.056h3.52zm14.208-.8l.8-.8c-2.24-2.432-4.992-4.832-8.256-7.264l-.768.704c3.424 2.56 6.176 4.992 8.224 7.36zm-26.08-.192c3.264-1.984 5.984-4.288 8.192-6.912l-.8-.704c-2.176 2.56-4.864 4.8-8.064 6.72l.672.896z" fill="#000"/><path d="M115.632 54.948c6.941 0 12.135-1.355 15.58-4.066 3.445-2.71 5.168-6.523 5.168-11.438 0-2.533-.33-4.687-.988-6.46a12.524 12.524 0 00-3.002-4.636c-1.343-1.317-3.027-2.47-5.054-3.458s-4.408-1.989-7.144-3.002c-1.317-.456-2.52-.9-3.61-1.33a17.05 17.05 0 01-2.888-1.444c-.836-.532-1.482-1.127-1.938-1.786-.456-.659-.684-1.47-.684-2.432 0-1.621.62-2.825 1.862-3.61 1.241-.785 3.28-1.178 6.118-1.178 2.533 0 4.7.291 6.498.874 1.799.583 3.433 1.254 4.902 2.014l3.42-9.348c-1.672-.912-3.8-1.748-6.384-2.508-2.584-.76-5.65-1.14-9.196-1.14-2.99 0-5.675.367-8.056 1.102-2.381.735-4.408 1.786-6.08 3.154a14.035 14.035 0 00-3.876 4.978c-.912 1.95-1.368 4.142-1.368 6.574 0 2.432.43 4.497 1.292 6.194.861 1.697 1.976 3.141 3.344 4.332a19.05 19.05 0 004.636 2.964 63.036 63.036 0 005.168 2.09c3.952 1.317 6.739 2.546 8.36 3.686 1.621 1.14 2.432 2.571 2.432 4.294 0 .81-.127 1.545-.38 2.204-.253.659-.71 1.229-1.368 1.71-.659.481-1.533.861-2.622 1.14-1.09.279-2.47.418-4.142.418-3.344 0-6.169-.342-8.474-1.026-2.305-.684-4.243-1.457-5.814-2.318L98 50.92c.71.405 1.583.836 2.622 1.292 1.039.456 2.28.887 3.724 1.292 1.444.405 3.103.747 4.978 1.026 1.875.279 3.977.418 6.308.418zm44.032-1.064V23.028a52.61 52.61 0 012.204-.266c.76-.076 1.495-.114 2.204-.114 2.28 0 3.889.76 4.826 2.28.937 1.52 1.406 4.104 1.406 7.752v21.204h11.324V32.072c0-1.47-.05-2.85-.152-4.142a17.258 17.258 0 00-.684-3.686c.71-.456 1.609-.836 2.698-1.14 1.09-.304 1.938-.456 2.546-.456 2.28 0 3.889.76 4.826 2.28.937 1.52 1.406 4.104 1.406 7.752v21.204h11.324V31.312c0-2.736-.228-5.219-.684-7.448-.456-2.23-1.292-4.155-2.508-5.776-1.216-1.621-2.85-2.875-4.902-3.762s-4.674-1.33-7.866-1.33c-1.773 0-3.711.33-5.814.988-2.103.659-3.965 1.57-5.586 2.736-1.165-1.013-2.647-1.887-4.446-2.622-1.799-.735-4.142-1.102-7.03-1.102-1.47 0-2.964.063-4.484.19s-3.002.304-4.446.532a78.577 78.577 0 00-7.486 1.558v38.608h11.324zm72.304.836c4.104 0 7.6-.24 10.488-.722 2.888-.481 5.143-.9 6.764-1.254v-23.56c0-2.483-.279-4.737-.836-6.764-.557-2.027-1.507-3.75-2.85-5.168-1.343-1.419-3.129-2.508-5.358-3.268-2.23-.76-5.016-1.14-8.36-1.14-1.317 0-2.622.063-3.914.19-1.292.127-2.52.279-3.686.456a43.55 43.55 0 00-3.23.608c-.988.228-1.811.443-2.47.646l1.444 9.12c1.368-.507 2.99-.9 4.864-1.178a38.714 38.714 0 015.7-.418c2.888 0 4.915.583 6.08 1.748s1.748 2.71 1.748 4.636v1.064c-.71-.203-1.634-.367-2.774-.494-1.14-.127-2.445-.19-3.914-.19a30.27 30.27 0 00-6.308.646c-2.027.43-3.825 1.127-5.396 2.09a10.82 10.82 0 00-3.762 3.876c-.937 1.621-1.406 3.597-1.406 5.928 0 2.432.405 4.484 1.216 6.156a10.26 10.26 0 003.496 4.066c1.52 1.039 3.331 1.786 5.434 2.242 2.103.456 4.446.684 7.03.684zm.76-8.74c-2.077 0-3.711-.342-4.902-1.026-1.19-.684-1.786-1.913-1.786-3.686 0-.912.203-1.672.608-2.28.405-.608.963-1.09 1.672-1.444.71-.355 1.533-.595 2.47-.722.937-.127 1.938-.19 3.002-.19.76 0 1.596.05 2.508.152.912.101 1.596.203 2.052.304v8.588c-.608.101-1.419.177-2.432.228-1.013.05-2.077.076-3.192.076zm41.676 7.904V23.332c.507-.152 1.254-.291 2.242-.418s1.837-.19 2.546-.19c1.57 0 3.04.14 4.408.418 1.368.279 2.559.545 3.572.798l1.9-9.348c-.608-.253-1.343-.469-2.204-.646a46.005 46.005 0 00-5.168-.76 25.662 25.662 0 00-2.204-.114c-3.395 0-6.473.317-9.234.95s-5.155 1.305-7.182 2.014v37.848h11.324zm39.776.912c2.432 0 4.484-.203 6.156-.608 1.672-.405 3.192-.887 4.56-1.444l-1.596-8.816a19.39 19.39 0 01-3.534.95 21.636 21.636 0 01-3.762.342c-2.533 0-4.218-.71-5.054-2.128-.836-1.419-1.254-3.319-1.254-5.7v-14.06H323.3v-9.424h-13.604V2.128l-11.324 1.824v33.592c0 2.584.24 4.94.722 7.068.481 2.128 1.33 3.94 2.546 5.434 1.216 1.495 2.837 2.66 4.864 3.496 2.027.836 4.585 1.254 7.676 1.254z" fill="#0098FF"/><path d="M351.524 54.34c8.41 0 14.554-1.33 18.43-3.99 3.876-2.66 5.814-6.625 5.814-11.894 0-3.597-.912-6.384-2.736-8.36-1.824-1.976-4.281-3.42-7.372-4.332 2.28-.912 4.104-2.293 5.472-4.142 1.368-1.85 2.052-4.218 2.052-7.106 0-2.584-.557-4.763-1.672-6.536-1.115-1.773-2.647-3.205-4.598-4.294-1.95-1.09-4.256-1.862-6.916-2.318-2.66-.456-5.51-.684-8.55-.684-1.064 0-2.204.025-3.42.076-1.216.05-2.445.127-3.686.228s-2.47.228-3.686.38c-1.216.152-2.33.355-3.344.608v51.072c1.013.253 2.128.456 3.344.608 1.216.152 2.445.279 3.686.38a91.761 91.761 0 007.182.304zm.836-30.932h-7.752V7.144a41.995 41.995 0 012.888-.228c1.064-.05 2.533-.076 4.408-.076 1.875 0 3.648.152 5.32.456 1.672.304 3.129.773 4.37 1.406 1.241.633 2.217 1.47 2.926 2.508.71 1.039 1.064 2.318 1.064 3.838 0 1.621-.342 2.964-1.026 4.028-.684 1.064-1.621 1.925-2.812 2.584-1.19.659-2.597 1.115-4.218 1.368-1.621.253-3.344.38-5.168.38zm-.38 24.776c-1.165 0-2.191-.013-3.078-.038a48.929 48.929 0 01-2.318-.114c-.76-.05-1.419-.101-1.976-.152V29.336h9.5c2.128 0 4.053.152 5.776.456 1.723.304 3.205.81 4.446 1.52 1.241.71 2.191 1.66 2.85 2.85.659 1.19.988 2.647.988 4.37 0 1.925-.443 3.521-1.33 4.788-.887 1.267-2.065 2.255-3.534 2.964-1.47.71-3.18 1.203-5.13 1.482-1.95.279-4.015.418-6.194.418zm49.884 6.536c1.57 0 3.154-.063 4.75-.19a142.56 142.56 0 004.446-.418 73.996 73.996 0 003.686-.494c1.09-.177 1.938-.317 2.546-.418V28.5c0-2.23-.253-4.269-.76-6.118-.507-1.85-1.355-3.445-2.546-4.788-1.19-1.343-2.761-2.381-4.712-3.116-1.95-.735-4.345-1.102-7.182-1.102-2.483 0-4.788.19-6.916.57-2.128.38-3.648.773-4.56 1.178l.836 5.852c.861-.355 2.166-.697 3.914-1.026 1.748-.33 3.787-.494 6.118-.494 1.824 0 3.306.266 4.446.798 1.14.532 2.04 1.241 2.698 2.128a7.909 7.909 0 011.368 3.04c.253 1.14.38 2.293.38 3.458v1.976c-.203-.05-.557-.127-1.064-.228s-1.102-.215-1.786-.342a26.252 26.252 0 00-2.166-.304 22.161 22.161 0 00-2.204-.114c-2.23 0-4.357.228-6.384.684-2.027.456-3.8 1.165-5.32 2.128a10.595 10.595 0 00-3.61 3.8c-.887 1.57-1.33 3.445-1.33 5.624 0 2.28.38 4.23 1.14 5.852.76 1.621 1.824 2.926 3.192 3.914s2.99 1.71 4.864 2.166c1.875.456 3.927.684 6.156.684zm.836-5.928c-2.787 0-4.99-.494-6.612-1.482-1.621-.988-2.432-2.749-2.432-5.282 0-1.368.33-2.47.988-3.306a7 7 0 012.47-1.976c.988-.481 2.077-.798 3.268-.95a26.76 26.76 0 013.382-.228c1.621 0 3.002.089 4.142.266 1.14.177 1.963.393 2.47.646v11.78c-.861.203-1.938.342-3.23.418a76.625 76.625 0 01-4.446.114zm36.964 5.092V20.672a102.4 102.4 0 012.546-.57 18.512 18.512 0 013.914-.418c2.027 0 3.686.14 4.978.418 1.292.279 2.217.52 2.774.722l1.216-6.156c-.304-.101-.773-.215-1.406-.342a66.259 66.259 0 00-2.09-.38 34.043 34.043 0 00-2.318-.304 21.97 21.97 0 00-2.09-.114c-3.09 0-5.877.266-8.36.798-2.483.532-4.56 1.102-6.232 1.71v37.848h7.068z" fill="#000"/></g></svg>