<svg width="120" height="120" xmlns="http://www.w3.org/2000/svg"><defs><linearGradient x1="67.182%" y1="0%" x2="37.513%" y2="102.488%" id="a"><stop stop-color="#0098FF" offset="0%"/><stop stop-color="#00E4FF" stop-opacity=".238" offset="100%"/></linearGradient><linearGradient x1="67.912%" y1="-4.396%" x2="32.559%" y2="107.177%" id="b"><stop stop-color="#00E9FF" stop-opacity=".238" offset="0%"/><stop stop-color="#0098FF" offset="100%"/></linearGradient><linearGradient x1="57.359%" y1="-12.061%" x2="40.848%" y2="100%" id="c"><stop stop-color="#0098FF" offset="0%"/><stop stop-color="#00E9FF" stop-opacity=".238" offset="100%"/></linearGradient></defs><g fill="none" fill-rule="evenodd"><path d="M11.3 33.724l34.1-5.336c6.001-.94 11.628 3.165 12.568 9.167a11 11 0 01.132 1.7v64.653a11 11 0 01-9.3 10.868l-34.1 5.336c-6.001.94-11.628-3.165-12.568-9.167a11 11 0 01-.132-1.7V44.592a11 11 0 019.3-10.868z" fill="url(#a)" transform="translate(0 -1)"/><path d="M39.986 8.397l44-6.526c6.01-.891 11.604 3.258 12.495 9.267a11 11 0 01.119 1.614v74.67a11 11 0 01-9.386 10.881l-44 6.526c-6.01.891-11.604-3.258-12.495-9.267a11 11 0 01-.119-1.614v-74.67a11 11 0 019.386-10.881z" fill="url(#b)" transform="translate(0 -1)"/><path d="M83.689 20.265l20.9-3.687c5.983-1.056 11.688 2.939 12.744 8.921a11 11 0 01.167 1.912v52.591a11 11 0 01-9.089 10.833l-20.9 3.687c-5.983 1.056-11.688-2.939-12.744-8.921a11 11 0 01-.167-1.912V31.098a11 11 0 019.089-10.833z" fill="url(#c)" transform="translate(0 -1)"/></g></svg>