<svg width="107" height="490" xmlns="http://www.w3.org/2000/svg"><g fill-rule="nonzero" fill="none"><path d="M.5 22.948c0 8.443 1.653 14.76 4.958 18.952 3.305 4.19 7.954 6.286 13.947 6.286 3.089 0 5.714-.4 7.876-1.202a15.275 15.275 0 005.653-3.651c1.607-1.634 3.012-3.683 4.217-6.148 1.204-2.465 2.425-5.362 3.66-8.69a108.659 108.659 0 011.622-4.392c.525-1.325 1.112-2.496 1.76-3.513.65-1.016 1.375-1.802 2.178-2.357.804-.555 1.792-.832 2.966-.832 1.977 0 3.444.755 4.402 2.265.957 1.51 1.436 3.99 1.436 7.442 0 3.082-.355 5.716-1.066 7.904-.71 2.188-1.529 4.176-2.455 5.963l11.398 4.16c1.112-2.034 2.131-4.622 3.058-7.765.927-3.144 1.39-6.872 1.39-11.186 0-3.637-.448-6.903-1.344-9.8-.896-2.897-2.177-5.362-3.845-7.396a17.107 17.107 0 00-6.07-4.715c-2.379-1.109-5.05-1.664-8.016-1.664s-5.483.524-7.553 1.572c-2.07 1.048-3.83 2.404-5.282 4.068a23.165 23.165 0 00-3.614 5.639 76.572 76.572 0 00-2.548 6.286c-1.607 4.808-3.105 8.197-4.495 10.17-1.39 1.972-3.135 2.958-5.236 2.958-.988 0-1.884-.154-2.687-.462-.803-.308-1.498-.863-2.085-1.664-.587-.802-1.05-1.865-1.39-3.19-.34-1.325-.51-3.004-.51-5.038 0-4.068.417-7.504 1.251-10.308.834-2.804 1.776-5.162 2.826-7.072L5.412 1.5c-.495.863-1.02 1.926-1.576 3.19-.556 1.263-1.081 2.773-1.575 4.53-.495 1.756-.912 3.774-1.251 6.055-.34 2.28-.51 4.838-.51 7.673zm1.297 53.561h37.624c.124.863.232 1.757.325 2.681.092.925.139 1.818.139 2.681 0 2.773-.927 4.73-2.78 5.87-1.854 1.14-5.005 1.71-9.453 1.71H1.797v13.775h26.596c1.792 0 3.476-.061 5.051-.184 1.575-.124 3.074-.401 4.494-.832.556.862 1.02 1.956 1.39 3.281.371 1.326.557 2.358.557 3.097 0 2.774-.927 4.73-2.78 5.87-1.854 1.141-5.005 1.711-9.453 1.711H1.797v13.775H29.32c3.336 0 6.363-.278 9.082-.832 2.718-.555 5.066-1.572 7.043-3.051 1.977-1.48 3.506-3.467 4.587-5.963s1.622-5.685 1.622-9.568c0-2.157-.402-4.515-1.205-7.072-.803-2.558-1.915-4.823-3.336-6.795 1.235-1.418 2.301-3.22 3.197-5.409.896-2.187 1.344-5.038 1.344-8.55 0-1.788-.078-3.606-.232-5.455a73.992 73.992 0 00-.649-5.409 95.39 95.39 0 00-1.9-9.106H1.797V76.51zM.778 164.461c0 4.992.293 9.245.88 12.758s1.097 6.255 1.53 8.227h28.727c3.027 0 5.776-.338 8.248-1.016 2.47-.678 4.571-1.834 6.301-3.467 1.73-1.633 3.058-3.806 3.985-6.518.927-2.712 1.39-6.101 1.39-10.169 0-1.602-.077-3.19-.232-4.761a84.731 84.731 0 00-.556-4.484 52.86 52.86 0 00-.741-3.929 44.45 44.45 0 00-.788-3.004l-11.12 1.756c.618 1.664 1.096 3.636 1.436 5.917.34 2.28.51 4.591.51 6.933 0 3.513-.71 5.979-2.132 7.396-1.42 1.418-3.305 2.126-5.652 2.126h-1.298c.247-.862.448-1.987.603-3.374.154-1.387.231-2.974.231-4.76 0-2.651-.262-5.209-.787-7.674-.526-2.465-1.375-4.653-2.549-6.564-1.174-1.91-2.749-3.436-4.726-4.576-1.977-1.14-4.386-1.71-7.228-1.71-2.966 0-5.468.493-7.506 1.479a12.501 12.501 0 00-4.958 4.252c-1.267 1.85-2.178 4.053-2.734 6.61-.556 2.558-.834 5.409-.834 8.552zm10.657.924c0-2.527.417-4.514 1.251-5.963.834-1.448 2.332-2.172 4.494-2.172 1.113 0 2.04.246 2.78.74.742.493 1.329 1.17 1.761 2.033.433.863.726 1.865.88 3.005.155 1.14.232 2.357.232 3.652 0 .924-.061 1.941-.185 3.05-.124 1.11-.247 1.942-.37 2.496H11.805c-.124-.74-.217-1.725-.278-2.958a77.682 77.682 0 01-.093-3.883zm-9.638 50.696H39.05c.186.616.356 1.525.51 2.727.155 1.202.232 2.234.232 3.097 0 1.91-.17 3.698-.51 5.362-.34 1.664-.664 3.112-.973 4.345l11.398 2.311c.31-.74.572-1.633.788-2.68a55.84 55.84 0 00.927-6.287c.093-1.048.139-1.942.139-2.681 0-4.13-.386-7.874-1.159-11.233-.772-3.359-1.59-6.27-2.455-8.736H1.797v13.775zM.685 264.465c0 2.958.247 5.454.742 7.488.494 2.034 1.08 3.883 1.76 5.547l10.75-1.941c-.494-1.295-.88-2.728-1.158-4.3a26.257 26.257 0 01-.417-4.575c0-3.082.865-5.131 2.594-6.148 1.73-1.017 4.047-1.526 6.95-1.526H39.05v16.549h11.491V259.01h14.364l-2.224-13.774h-40.96c-3.15 0-6.023.293-8.618.878-2.595.586-4.803 1.618-6.626 3.097-1.822 1.48-3.243 3.451-4.263 5.917-1.019 2.465-1.529 5.577-1.529 9.337z" fill="#0098FF"/><path d="M.964 310.755c0 10.212 1.625 17.67 4.874 22.377 3.248 4.706 8.091 7.059 14.527 7.059 4.394 0 7.797-1.108 10.21-3.322 2.414-2.215 4.178-5.198 5.292-8.95 1.114 2.767 2.8 4.982 5.06 6.643 2.258 1.66 5.151 2.491 8.678 2.491 3.157 0 5.818-.676 7.984-2.03 2.166-1.353 3.914-3.214 5.244-5.582 1.33-2.369 2.275-5.168 2.832-8.397.557-3.23.835-6.69.835-10.381 0-1.292-.03-2.676-.093-4.152a111.976 111.976 0 00-.278-4.476 104.26 104.26 0 00-.464-4.475 34.18 34.18 0 00-.743-4.06H2.542a34.18 34.18 0 00-.742 4.06 104.26 104.26 0 00-.465 4.475 110.753 110.753 0 00-.37 8.72zm37.78 1.015v-9.412H58.61a50.69 50.69 0 01.278 3.507c.062 1.292.093 3.075.093 5.352 0 2.276-.186 4.429-.557 6.459-.371 2.03-.944 3.798-1.717 5.305-.774 1.508-1.795 2.692-3.064 3.553-1.268.861-2.83 1.292-4.687 1.292-1.98 0-3.62-.415-4.92-1.246-1.3-.83-2.352-1.968-3.156-3.414-.805-1.446-1.362-3.153-1.671-5.121a40.419 40.419 0 01-.464-6.275zm-30.26-.461c0-1.415.015-2.66.046-3.737.03-1.077.077-2.015.139-2.815.062-.922.124-1.722.185-2.399h22.65v11.534c0 2.584-.185 4.922-.557 7.013-.371 2.092-.99 3.891-1.856 5.398-.867 1.507-2.027 2.66-3.481 3.46-1.455.8-3.234 1.2-5.338 1.2-2.351 0-4.3-.538-5.848-1.615-1.547-1.076-2.754-2.506-3.62-4.29-.867-1.784-1.47-3.86-1.81-6.229-.34-2.368-.51-4.875-.51-7.52zM.5 371.874c0 1.907.077 3.83.232 5.768.155 1.937.325 3.737.51 5.398.186 1.66.387 3.152.604 4.475.217 1.322.387 2.353.51 3.091h30.17c2.722 0 5.213-.308 7.472-.923 2.259-.615 4.208-1.645 5.848-3.09 1.64-1.447 2.909-3.354 3.806-5.722.897-2.368 1.346-5.275 1.346-8.72 0-3.014-.232-5.813-.696-8.397-.464-2.583-.944-4.429-1.44-5.536l-7.147 1.015c.433 1.046.851 2.63 1.253 4.752.403 2.122.604 4.598.604 7.428 0 2.215-.325 4.014-.975 5.398-.65 1.384-1.516 2.476-2.6 3.276-1.082.8-2.32 1.353-3.712 1.66-1.393.308-2.8.462-4.224.462h-2.413c.062-.246.154-.677.278-1.292.124-.615.263-1.338.418-2.168.155-.83.278-1.707.371-2.63.093-.923.14-1.815.14-2.676 0-2.707-.28-5.29-.836-7.75-.557-2.462-1.423-4.615-2.6-6.46a12.909 12.909 0 00-4.64-4.383c-1.919-1.077-4.209-1.615-6.87-1.615-2.785 0-5.167.461-7.147 1.384-1.98.923-3.574 2.215-4.781 3.876-1.207 1.66-2.089 3.63-2.646 5.905-.557 2.276-.835 4.768-.835 7.474zm7.24 1.015c0-3.383.604-6.059 1.81-8.027 1.207-1.969 3.358-2.953 6.452-2.953 1.671 0 3.017.4 4.038 1.2 1.021.8 1.826 1.799 2.414 2.998.587 1.2.974 2.522 1.16 3.968a32.3 32.3 0 01.278 4.106c0 1.969-.108 3.645-.324 5.03-.217 1.383-.48 2.383-.79 2.998H8.39c-.247-1.046-.417-2.353-.51-3.922a92.479 92.479 0 01-.14-5.398zm-6.219 44.88h40.565c.124.492.356 1.522.697 3.09.34 1.57.51 3.153.51 4.753 0 2.46-.17 4.475-.51 6.044-.34 1.568-.635 2.69-.882 3.368l7.519 1.476c.124-.37.263-.938.418-1.707.154-.769.309-1.615.464-2.538.154-.922.278-1.86.371-2.814.093-.953.14-1.8.14-2.537 0-3.753-.326-7.136-.975-10.15-.65-3.015-1.346-5.537-2.09-7.567H1.522v8.581zM79.47 26.4c2.04-2.58 3.18-5.85 3.42-9.87h9.33v9.27h.66v-9.27h9.81v6.78c0 1.44-.72 2.19-2.13 2.19-1.02 0-2.16-.03-3.36-.03l.15.66h3.45c1.68 0 2.52-.87 2.52-2.61V1.26h-21v13.77c-.06 4.41-1.14 8.07-3.3 10.95l.45.42zm23.22-17.82h-9.81V1.89h9.81v6.69zm-10.47 0h-9.24V1.89h9.24v6.69zm0 7.32h-9.27l.03-.9V9.21h9.24v6.69zm10.47 0h-9.81V9.21h9.81v6.69zM91.68 59.25V43.89h10.86v15.36h.63V43.26H91.02v15.99h.66zm-12.42 5.34c3.36-.78 6.51-1.74 9.39-2.91v-.66c-1.41.6-2.88 1.14-4.44 1.62v-8.67h3.93v-.66h-3.93v-8.46h4.35v-.63h-9.42v.63h4.41v8.46h-4.02v.66h4.02v8.88c-1.44.42-2.91.78-4.44 1.11l.15.63zm8.76 4.14c3.3-1.29 5.64-3.03 7.08-5.19 1.44-2.34 2.19-5.43 2.19-9.33v-7.65h-.63v7.65c0 3.6-.66 6.51-1.98 8.79-1.5 2.25-3.84 3.96-7.08 5.16l.42.57zm15.03-.39c.9 0 1.53-.24 1.92-.69.48-.63.81-2.1.96-4.38l-.6-.21c-.15 2.28-.42 3.63-.84 4.11-.27.33-.78.51-1.56.51h-2.82c-.84 0-1.26-.36-1.26-1.05V59.1h-.66v7.65c0 1.05.57 1.59 1.71 1.59h3.15zm-.45 42.15c.54 0 1.05-.42 1.53-1.2.57-1.2 1.02-3.03 1.35-5.49l-.57-.33c-.51 4.26-1.29 6.39-2.34 6.39-1.2 0-2.46-.87-3.81-2.55-1.53-1.89-2.67-4.35-3.45-7.41-.42-1.74-.75-3.93-.96-6.54l10.44-1.17-.09-.66-10.41 1.17c-.21-2.58-.33-5.61-.33-9.06h-.66c0 3.48.12 6.51.33 9.12l-7.11.81.09.63 7.08-.78c.21 2.55.51 4.65.93 6.27.78 3.3 2.01 5.97 3.63 8.01 1.5 1.86 2.94 2.79 4.35 2.79zm-18.69.39V90.69c1.2-2.07 2.22-4.32 3.06-6.75l-.57-.27c-1.53 4.8-4.14 9.21-7.83 13.23l.18.66c1.68-1.74 3.18-3.66 4.5-5.76v19.08h.66zm17.88-21.6l.48-.45c-1.26-1.62-2.88-3.21-4.8-4.8l-.48.42c1.98 1.68 3.6 3.3 4.8 4.83zm-16.71 63.6v-19.71a35.75 35.75 0 004.2-7.32l-.6-.27c-1.95 4.86-5.25 9.33-9.87 13.35l.18.66c2.01-1.68 3.81-3.51 5.43-5.55v18.84h.66zm16.53-.57c1.26 0 2.13-.36 2.64-1.08.45-.75.75-2.85.93-6.3l-.63-.15c-.15 3.45-.45 5.46-.87 6.03-.45.54-1.17.84-2.16.84h-5.73c-1.14 0-1.68-.57-1.68-1.68v-11.1c3.84-2.43 7.11-5.25 9.81-8.43l-.42-.48a42.459 42.459 0 01-9.39 8.16v-12.36h-.66v12.78c-1.68 1.02-3.45 1.95-5.34 2.85l.33.63c1.74-.84 3.42-1.77 5.01-2.73v10.77c0 1.5.72 2.25 2.16 2.25h6zm-21.09 42.42c2.55-2.1 4.59-4.38 6.09-6.84 1.08-2.13 1.8-4.53 2.16-7.2h12.03c0 4.2-.09 7.17-.27 8.94-.36 2.76-1.59 4.2-3.69 4.29-.96 0-2.19-.03-3.63-.06l.21.6c1.38.03 2.52.06 3.48.06 2.4-.12 3.78-1.65 4.2-4.56.24-1.8.36-5.1.36-9.9h-12.6l.06-.75c.18-2.85.27-4.89.3-6.09h16.2v-.63h-11.4c-.78-1.95-1.62-3.6-2.58-4.92l-.63.21c1.02 1.44 1.86 3.03 2.52 4.71H79.86v.63h8.7c-.03.99-.09 2.79-.21 5.43-.18 2.91-.78 5.55-1.8 7.95-1.14 2.4-3.33 4.98-6.51 7.71l.48.42zm21.84 41.88c1.2-.06 2.25-2.1 3.15-6.15l-.6-.33c-.78 3.66-1.65 5.61-2.58 5.85-1.32-.06-2.61-1.71-3.93-4.95-1.53-3.81-2.49-8.73-2.85-14.79h9.78v-.66h-9.81c-.12-1.83-.15-3.78-.15-5.82h-.66c0 2.01.03 3.96.15 5.82H79.5v.66h15.39c.24 4.08.72 7.65 1.5 10.71 1.8 6.39 3.81 9.6 5.97 9.66zm.03-22.26l.6-.3c-.96-1.44-2.04-2.76-3.18-3.99l-.57.27c1.08 1.17 2.13 2.52 3.15 4.02zm-22.62 20.22c4.98-.66 9.57-1.5 13.77-2.55v-.66c-2.25.54-4.59 1.05-7.02 1.53v-9.69h5.82v-.66h-12.3v.66h5.82v9.81c-2.04.36-4.11.66-6.27.93l.18.63zm20.28 43.89c2.1 0 3.33-1.2 3.66-3.6.36-2.22.54-8.34.54-18.3H93.42c.45-1.53.81-3.18 1.11-4.92l-.63-.06c-.75 4.56-2.16 8.43-4.23 11.61l.39.51c1.26-1.89 2.31-4.05 3.15-6.51h10.38c0 9.84-.21 15.87-.57 18.09-.36 1.74-1.38 2.61-3.06 2.61-.9 0-1.98-.03-3.21-.06l.12.6c1.5 0 2.58.03 3.18.03zm-15.18.21v-16.56c1.2 1.29 2.64 3.09 4.35 5.43l.33-.51c-1.62-2.16-3.18-4.08-4.68-5.7v-2.61h4.23v-.63h-4.23v-6.36h-.63v6.36h-4.89v.63h4.83c-.99 4.41-2.82 8.34-5.46 11.82l.27.6c2.34-3.06 4.11-6.6 5.25-10.65v18.18h.63zm15.24-5.55l.57-.24c-.78-2.73-1.71-5.31-2.76-7.71l-.63.18c.57 1.26 1.14 2.64 1.68 4.2-2.04.48-4.35.99-6.96 1.53.9-1.26 2.22-4.44 4.02-9.54l-.6-.21c-2.22 6.24-3.75 9.6-4.62 10.08l.15.48c3.12-.57 5.85-1.14 8.22-1.74.3.9.63 1.89.93 2.97zm-3.6 44.97v-4.14h8.43v-.63h-8.43v-3.84h7.59v-.63h-7.59v-3.54h6.51v-4.2h2.49v-.66h-2.49v-4.26h-6.51v-2.55h-.66v2.55h-5.82v.63h5.82v3.63h-7.29v.66h7.29v3.54h-5.82v.66h5.82v3.54H89.4v.63h6.45v3.84H88.5v.63h7.35v4.14h.66zm-16.65 2.28a16.11 16.11 0 004.05-4.38c.48.6 1.02 1.14 1.62 1.62 2.25 1.56 5.97 2.34 11.13 2.34h9.09l.12-.66c-3.24.06-6.42.09-9.51.09-4.44-.06-7.77-.69-9.99-1.92-.75-.42-1.47-1.08-2.16-1.95 1.65-2.82 2.55-6.3 2.67-10.38v-.45H81.3c1.8-2.31 3.6-5.1 5.46-8.37v-.57H80.1v.66h5.85c-1.65 3-3.48 5.79-5.52 8.37v.57h5.82c-.18 3.78-.99 6.99-2.43 9.63-1.05-1.56-1.98-3.72-2.82-6.48l-.51.18c.78 2.82 1.77 5.07 3.03 6.81-1.02 1.74-2.37 3.18-4.05 4.38l.39.51zm22.5-19.92h-5.85v-3.63h5.85v3.63zm0 4.2h-5.85v-3.54h5.85v3.54zm-22.83 57.57c3.36-2.4 5.64-5.52 6.84-9.36 1.74 1.71 3.84 4.17 6.36 7.41l.33-.51c-2.22-2.88-4.38-5.4-6.48-7.56 0-.06.03-.12.06-.18.21-.9.39-1.83.54-2.85h5.88v-.63h-5.79c.3-2.25.48-4.8.51-7.65h5.04v-.66h-9.84c.57-1.41 1.08-2.94 1.56-4.62l-.63-.12c-1.05 3.93-2.58 7.38-4.62 10.32l.54.33c1.08-1.56 2.04-3.33 2.88-5.25h4.41c-.03 2.82-.21 5.37-.51 7.65h-7.17v.63h7.08a33 33 0 01-.69 3.27c-1.17 3.84-3.42 6.93-6.72 9.24l.42.54zm16.44-.75v-2.46h7.23v2.31h.66v-21.96h-8.52v22.11h.63zm7.23-3.09h-7.23v-18.39h7.23v18.39zm-16.68 25.08l.45-.45c-1.41-1.65-3.15-3.27-5.25-4.89l-.48.42c2.16 1.71 3.93 3.36 5.28 4.92zm17.13 9.12v-12.57H91.17v12.57h12.48zm-.63-.66H91.83v-11.28h11.19v11.28zM83.73 403.2a36.16 36.16 0 004.98-4.41l-.15-.72c-1.53 1.56-2.91 2.85-4.11 3.81v-14.52h-5.46v.66h4.83v13.95c0 .18-.12.42-.36.66l.27.57zm21.66 1.59l.51-.39c-1.32-2.58-3.21-5.64-5.7-9.12l-.54.33c2.43 3.33 4.35 6.39 5.73 9.18zm-15.9.06c2.16-2.61 4.05-5.7 5.64-9.24l-.6-.3c-1.56 3.54-3.39 6.6-5.55 9.18l.51.36zm-5.85 42v-19.56c1.2-2.25 2.25-4.71 3.09-7.38l-.6-.27c-1.44 5.01-3.87 9.57-7.32 13.71l.18.63c1.5-1.68 2.82-3.54 4.02-5.55v18.42h.63zm12.45-.06v-6.69h5.49v-.63h-5.49v-13.29h1.08c1.5 5.67 4.29 10.77 8.4 15.3l.42-.48c-3.99-4.32-6.72-9.27-8.19-14.82h7.05v-.66h-8.76v-5.85h-.63v5.85h-8.79v.66h7.14c-1.56 6.24-4.26 11.28-8.13 15.12l.33.54c4.02-4.02 6.81-9.24 8.37-15.66h1.08v13.29H90v.63h5.46v6.69h.63zM91.2 488.7c1.26 0 1.89-.6 1.89-1.8v-9.09c3-.21 5.67-.45 7.98-.72.84 1.14 1.56 2.25 2.19 3.3l.54-.42c-1.29-2.07-3.15-4.5-5.58-7.32l-.51.33c1.05 1.2 2.01 2.4 2.91 3.54-4.38.48-9.81.84-16.32 1.14 4.41-1.86 9.51-5.46 15.3-10.77l-.6-.3a120.73 120.73 0 01-4.65 3.93c-3.21.24-6.42.42-9.66.6 2.4-1.23 4.95-3.36 7.68-6.39 4.02-.36 7.53-.96 10.5-1.8l-.33-.6c-5.28 1.44-12.24 2.19-20.88 2.22l.21.6c3.45 0 6.66-.12 9.63-.36-2.79 3-5.34 5.07-7.62 6.18-.18.06-.33.09-.51.12l.18.66c3.6-.18 6.96-.39 10.05-.63-3.93 3.03-7.44 5.19-10.5 6.48-.18.06-.39.09-.63.12l.18.63c3.57-.15 6.84-.33 9.81-.51v8.91c0 .9-.51 1.38-1.5 1.38-1.02 0-2.07-.03-3.15-.06l.12.63h3.27zm13.53-.78l.48-.48c-2.1-2.31-4.68-4.62-7.8-6.9l-.48.42c3.21 2.4 5.82 4.74 7.8 6.96zm-24.75-.18c3.06-1.86 5.61-4.05 7.71-6.51l-.51-.45c-2.04 2.46-4.59 4.59-7.62 6.42l.42.54z" fill="#000"/></g></svg>